<svg xmlns="http://www.w3.org/2000/svg" xmlns:xlink="http://www.w3.org/1999/xlink" fill="none" version="1.1" width="25" height="25.000001907348633" viewBox="0 0 25 25.000001907348633"><g style="mix-blend-mode:passthrough"><path d="M3.61253,6.15248L3.88453,6.69648Q4.33174,7.59091,3.88453,8.48534L3.43757,9.37927Q3.02619,10.20202,2.13378,10.42512L1.75746,10.5192Q1.4218190000000002,10.6031,1.210671,10.8715Q1,11.1393,1,11.4817L1,13.5176Q1,13.8601,1.210774,14.1283Q1.4219810000000002,14.3969,1.75746,14.4808L2.13378,14.5749Q3.02619,14.798,3.43757,15.6207L3.88453,16.5147Q4.33174,17.4091,3.88453,18.3035L3.58413,18.9043Q3.27947,19.5136,3.72471,19.9918Q4.30867,20.619,5.0277,21.3535Q5.27052,21.6015,5.61556,21.6383Q5.96223,21.6753,6.26067,21.4845L6.60417,21.2648Q7.56064,20.6531,8.57613,21.1609L9.37927,21.5624Q10.20202,21.9738,10.42512,22.8662L10.5192,23.2425Q10.6031,23.5782,10.8715,23.7893Q11.1393,24,11.4817,24L13.5176,24Q13.8601,24,14.1283,23.7892Q14.3969,23.578,14.4808,23.2425L14.5694,22.888Q14.7998,21.9666,15.6595,21.5628L16.5384,21.15Q17.4159,20.7378,18.2831,21.1714L18.8475,21.4536Q19.4922,21.776,20.0101,21.258L21.1978,20.0704Q21.7098,19.5584,21.3875,18.9137L21.1155,18.3697Q20.6683,17.4753,21.1155,16.5808L21.5624,15.6869Q21.9738,14.8642,22.8662,14.641L23.2425,14.547Q23.5782,14.4631,23.7893,14.1946Q24,13.9268,24,13.5845L24,11.5485Q24,11.206,23.7892,10.9379Q23.578,10.6692,23.2425,10.5854L22.8662,10.4913Q21.9738,10.2682,21.5624,9.44544L21.1155,8.55151Q20.6683,7.65709,21.1155,6.76266L21.4159,6.16186Q21.7205,5.55253,21.2753,5.07434Q20.6818,4.43698,19.9488,3.6887Q19.7113,3.44624,19.3754,3.40743Q19.0374,3.36838,18.7389,3.54971L18.3771,3.76958Q17.4326,4.34351,16.4441,3.84924L15.6207,3.43757Q14.798,3.02619,14.5749,2.13378L14.4808,1.75746Q14.3969,1.4218199999999999,14.1285,1.210672Q13.8607,1,13.5183,1L11.4824,1Q11.1399,1,10.8717,1.210774Q10.6031,1.4219810000000002,10.5192,1.75746L10.42512,2.13378Q10.20202,3.02619,9.37927,3.43757L8.48534,3.88453Q7.59091,4.3317499999999995,6.69648,3.88453L6.15248,3.61253Q5.50782,3.2902,4.98986,3.80816L3.80222,4.99579Q3.2902,5.50782,3.61253,6.15248ZM2.7181,6.5997Q2.42933,6.02214,2.5341,5.38294Q2.63863,4.74517,3.09511,4.28869L4.28275,3.10105Q4.73909,2.64471,5.37802,2.53739Q6.02195,2.42923,6.5997,2.71811L7.1437,2.9901Q7.59091,3.21371,8.03812,2.9901L8.93205,2.54314Q9.34343,2.33745,9.45498,1.89125L9.54906,1.51493Q9.71595,0.8473649999999999,10.25373,0.4246099Q10.7939,0,11.4824,0L13.5183,0Q14.2069,0,14.7468,0.4247126Q15.2841,0.847383,15.4509,1.51493L15.545,1.89125Q15.6566,2.33745,16.0679,2.54314L16.8913,2.95482Q17.3856,3.20195,17.8578,2.91498L18.2197,2.69511Q18.8113,2.3356,19.4902,2.41404Q20.1778,2.49349,20.6631,2.9889Q21.4051,3.74623,22.0072,4.3929Q22.4284,4.84526,22.508,5.45758Q22.5861,6.05754,22.3103,6.60907L22.0099,7.20987Q21.7863,7.65709,22.0099,8.1043L22.4569,8.99823Q22.6626,9.40961,23.1088,9.52116L23.4851,9.61524Q24.1526,9.78213,24.5754,10.3199Q25,10.86,25,11.5485L25,13.5845Q25,14.273,24.5753,14.8129Q24.1526,15.3502,23.4851,15.5171L23.1088,15.6112Q22.6626,15.7227,22.4569,16.1341L22.0099,17.028Q21.7863,17.4753,22.0099,17.9225L22.2819,18.4665Q22.5707,19.044,22.4659,19.6832Q22.3614,20.321,21.9049,20.7775L20.7173,21.9651Q20.2609,22.4215,19.622,22.5288Q18.9781,22.6369,18.4003,22.3481L17.8358,22.0658Q17.4023,21.849,16.9635,22.0551L16.084600000000002,22.4679Q15.6548,22.6698,15.5396,23.1305L15.4509,23.4851Q15.284,24.1526,14.7463,24.5754Q14.2061,25,13.5176,25L11.4817,25Q10.7931,25,10.25325,24.5753Q9.71595,24.1526,9.54906,23.4851L9.45498,23.1088Q9.34343,22.6626,8.93205,22.4569L8.128910000000001,22.0553Q7.62117,21.8014,7.14293,22.1073L6.79944,22.3269Q6.20521,22.707,5.50942,22.6327Q4.80722,22.5577,4.31313,22.053Q3.58531,21.3096,2.99284,20.6733Q2.57165,20.2209,2.49198,19.6086Q2.4139299999999997,19.0086,2.6897,18.4571L2.9901,17.8563Q3.21371,17.4091,2.9901,16.9619L2.54314,16.0679Q2.33745,15.6566,1.89125,15.545L1.51493,15.4509Q0.847364,15.284,0.4246098,14.7463Q0,14.2061,0,13.5176L0,11.4817Q0,10.7931,0.4247128,10.25325Q0.847383,9.71595,1.51493,9.54906L1.89125,9.45498Q2.33745,9.34343,2.54314,8.93205L2.9901,8.03812Q3.21371,7.59091,2.9901,7.14369L2.7181,6.5997ZM12.5,7Q14.7782,7,16.3891,8.61091Q18,10.22183,18,12.5Q18,14.7782,16.3891,16.3891Q14.7782,18,12.5,18Q10.22182,18,8.61091,16.3891Q7,14.7782,7,12.5Q7,10.22182,8.61091,8.61091Q10.22182,7,12.5,7ZM12.5,8Q10.636,8,9.31802,9.31802Q8,10.636,8,12.5Q8,14.364,9.31802,15.682Q10.636,17,12.5,17Q14.364,17,15.682,15.682Q17,14.364,17,12.5Q17,10.636,15.682,9.31802Q14.364,8,12.5,8Z" fill="#767676" fill-opacity="1"/></g></svg>