<svg xmlns="http://www.w3.org/2000/svg" xmlns:xlink="http://www.w3.org/1999/xlink" fill="none" version="1.1" width="25" height="25.000001907348633" viewBox="0 0 25 25.000001907348633"><g style="mix-blend-mode:passthrough"><g><g style="mix-blend-mode:passthrough"><path d="M17.5,12.5C17.5,15.261420000000001,15.261420000000001,17.5,12.5,17.5C9.738579999999999,17.5,7.5,15.261420000000001,7.5,12.5C7.5,9.738579999999999,9.738579999999999,7.5,12.5,7.5C15.261420000000001,7.5,17.5,9.738579999999999,17.5,12.5Z" fill="#FFFFFF" fill-opacity="1"/><path d="M12.5,17.5C15.261420000000001,17.5,17.5,15.261420000000001,17.5,12.5C17.5,9.738579999999999,15.261420000000001,7.5,12.5,7.5C9.738579999999999,7.5,7.5,9.738579999999999,7.5,12.5C7.5,15.261420000000001,9.738579999999999,17.5,12.5,17.5ZM16.5,12.5Q16.5,10.84315,15.32843,9.67157Q14.15686,8.5,12.5,8.5Q10.84315,8.5,9.67157,9.67157Q8.5,10.84315,8.5,12.5Q8.5,14.15686,9.67157,15.32843Q10.84315,16.5,12.5,16.5Q14.15685,16.5,15.32843,15.32843Q16.5,14.15686,16.5,12.5Z" fill-rule="evenodd" fill="#AFAFAF" fill-opacity="1"/></g><g style="mix-blend-mode:passthrough"><path d="M2.5341,5.38294Q2.42933,6.02214,2.7181,6.5997L2.9901,7.14369Q3.21371,7.59091,2.9901,8.03812L2.54314,8.93205Q2.33745,9.34343,1.89125,9.45498L1.51493,9.54906Q0.847383,9.71595,0.424713,10.2532Q8.9407e-8,10.7931,1.19209e-7,11.4817L0,13.5176Q0,14.2061,0.42461,14.7463Q0.847364,15.284,1.51493,15.4509L1.89125,15.545Q2.33745,15.6566,2.54314,16.0679L2.9901,16.9619Q3.21371,17.4091,2.9901,17.8563L2.6897,18.4571Q2.41393,19.0086,2.49198,19.6086Q2.57165,20.2209,2.99284,20.6733Q3.58531,21.3096,4.31313,22.053Q4.80722,22.5577,5.50942,22.6327Q6.20521,22.707,6.79944,22.3269L7.14293,22.1073Q7.62117,21.8014,8.12891,22.0553L8.93205,22.4569Q9.34343,22.6626,9.45498,23.1088L9.54906,23.4851Q9.71595,24.1526,10.2532,24.5753Q10.7931,25,11.4817,25L13.5176,25Q14.2061,25,14.7463,24.5754Q15.284,24.1526,15.4509,23.4851L15.5396,23.1305Q15.6548,22.6698,16.0846,22.4679L16.9635,22.0551Q17.4023,21.849,17.8358,22.0658L18.4003,22.3481Q18.9781,22.6369,19.622,22.5288Q20.2609,22.4215,20.7173,21.9651L21.9049,20.7775Q22.3614,20.321,22.4659,19.6832Q22.5707,19.044,22.2819,18.4665L22.0099,17.9225Q21.7863,17.4753,22.0099,17.028L22.4569,16.1341Q22.6626,15.7227,23.1088,15.6112L23.4851,15.5171Q24.1526,15.3502,24.5753,14.8129Q25,14.273,25,13.5845L25,11.5485Q25,10.86,24.5754,10.3199Q24.1526,9.78213,23.4851,9.61524L23.1088,9.52116Q22.6626,9.40961,22.4569,8.99823L22.0099,8.1043Q21.7863,7.65709,22.0099,7.20987L22.3103,6.60907Q22.5861,6.05754,22.508,5.45758Q22.4284,4.84526,22.0072,4.3929Q21.4051,3.74623,20.6631,2.9889Q20.1778,2.49349,19.4902,2.41404Q18.8113,2.3356,18.2197,2.69511L17.8578,2.91498Q17.3856,3.20195,16.8913,2.95482L16.0679,2.54314Q15.6566,2.33745,15.545,1.89125L15.4509,1.51493Q15.2841,0.847383,14.7468,0.424713Q14.2069,5.96046e-8,13.5183,0L11.4824,0Q10.7939,0,10.2537,0.42461Q9.71595,0.847365,9.54906,1.51493L9.45498,1.89125Q9.34343,2.33745,8.93205,2.54314L8.03812,2.9901Q7.59091,3.21371,7.1437,2.9901L6.5997,2.71811Q6.02195,2.42923,5.37802,2.53739Q4.73909,2.64471,4.28275,3.10105L3.09511,4.28869Q2.63863,4.74517,2.5341,5.38294ZM3.88453,6.69648L3.61253,6.15248Q3.2902,5.50782,3.80222,4.99579L4.98986,3.80816Q5.50782,3.2902,6.15248,3.61253L6.69648,3.88453Q7.59091,4.33175,8.48534,3.88453L9.37927,3.43757Q10.202,3.02619,10.4251,2.13378L10.5192,1.75746Q10.6031,1.42198,10.8717,1.21077Q11.1399,1,11.4824,1L13.5183,1Q13.8607,1,14.1285,1.21067Q14.3969,1.42182,14.4808,1.75746L14.5749,2.13378Q14.798,3.02619,15.6207,3.43757L16.4441,3.84924Q17.4326,4.34351,18.3771,3.76958L18.7389,3.54971Q19.0374,3.36838,19.3754,3.40743Q19.7113,3.44624,19.9488,3.6887Q20.6818,4.43698,21.2753,5.07434Q21.7205,5.55253,21.4159,6.16186L21.1155,6.76266Q20.6683,7.65709,21.1155,8.55151L21.5624,9.44544Q21.9738,10.2682,22.8662,10.4913L23.2425,10.5854Q23.578,10.6692,23.7892,10.9379Q24,11.206,24,11.5485L24,13.5845Q24,13.9268,23.7893,14.1946Q23.5782,14.4631,23.2425,14.547L22.8662,14.641Q21.9738,14.8642,21.5624,15.6869L21.1155,16.5808Q20.6683,17.4753,21.1155,18.3697L21.3875,18.9137Q21.7098,19.5584,21.1978,20.0704L20.0101,21.258Q19.4922,21.776,18.8475,21.4536L18.2831,21.1714Q17.4159,20.7378,16.5384,21.15L15.6595,21.5628Q14.7998,21.9666,14.5694,22.888L14.4808,23.2425Q14.3969,23.578,14.1283,23.7892Q13.8601,24,13.5176,24L11.4817,24Q11.1393,24,10.8715,23.7893Q10.6031,23.5782,10.5192,23.2425L10.4251,22.8662Q10.202,21.9738,9.37927,21.5624L8.57613,21.1609Q7.56064,20.6531,6.60417,21.2648L6.26067,21.4845Q5.96223,21.6753,5.61556,21.6383Q5.27052,21.6015,5.0277,21.3535Q4.30867,20.619,3.72471,19.9918Q3.27947,19.5136,3.58413,18.9043L3.88453,18.3035Q4.33174,17.4091,3.88453,16.5147L3.43757,15.6207Q3.02619,14.798,2.13378,14.5749L1.75746,14.4808Q1.42198,14.3969,1.21077,14.1283Q1,13.8601,1,13.5176L1,11.4817Q1,11.1393,1.21067,10.8715Q1.42182,10.6031,1.75746,10.5192L2.13378,10.4251Q3.02619,10.202,3.43757,9.37927L3.88453,8.48534Q4.33174,7.59091,3.88453,6.69648Z" fill-rule="evenodd" fill="#AFAFAF" fill-opacity="1"/></g></g></g></svg>